<svg width="2307" height="1004" viewBox="0 0 2307 1004" fill="none" xmlns="http://www.w3.org/2000/svg">
<rect x="231.198" y="573.926" width="1708.72" height="456.209" transform="rotate(-19.6063 231.198 573.926)" fill="#D9D9D9" fill-opacity="0.74"/>
<path d="M117.106 792V319.273H217.053V514.319H419.947V319.273H519.663V792H419.947V596.723H217.053V792H117.106Z" fill="white"/>
<path d="M903.274 555.636C903.274 607.187 893.502 651.044 873.959 687.206C854.57 723.368 828.102 750.99 794.555 770.072C761.163 788.999 723.616 798.463 681.913 798.463C639.904 798.463 602.202 788.922 568.81 769.841C535.417 750.759 509.026 723.138 489.637 686.975C470.248 650.813 460.553 607.033 460.553 555.636C460.553 504.086 470.248 460.229 489.637 424.067C509.026 387.904 535.417 360.359 568.81 341.432C602.202 322.35 639.904 312.81 681.913 312.81C723.616 312.81 761.163 322.35 794.555 341.432C828.102 360.359 854.57 387.904 873.959 424.067C893.502 460.229 903.274 504.086 903.274 555.636ZM801.942 555.636C801.942 522.244 796.941 494.083 786.938 471.155C777.09 448.226 763.163 430.838 745.159 418.989C727.155 407.14 706.073 401.215 681.913 401.215C657.754 401.215 636.672 407.14 618.668 418.989C600.663 430.838 586.66 448.226 576.658 471.155C566.809 494.083 561.885 522.244 561.885 555.636C561.885 589.029 566.809 617.189 576.658 640.118C586.66 663.046 600.663 680.435 618.668 692.284C636.672 704.133 657.754 710.058 681.913 710.058C706.073 710.058 727.155 704.133 745.159 692.284C763.163 680.435 777.09 663.046 786.938 640.118C796.941 617.189 801.942 589.029 801.942 555.636Z" fill="white"/>
<path d="M987.977 319.273L1083.31 480.388H1087L1182.79 319.273H1295.67L1151.4 555.636L1298.9 792H1183.95L1087 630.654H1083.31L986.361 792H871.873L1019.83 555.636L874.642 319.273H987.977Z" fill="#D6353A"/>
<path d="M1342.2 319.273H1465.46L1595.64 636.886H1601.18L1731.37 319.273H1854.63V792H1757.68V484.312H1753.76L1631.42 789.692H1565.41L1443.07 483.158H1439.14V792H1342.2V319.273Z" fill="white"/>
<path d="M1830.59 792V319.273H2149.12V401.677H1930.53V514.319H2132.74V596.723H1930.53V709.596H2150.05V792H1830.59Z" fill="white"/>
</svg>
